<svg xmlns="http://www.w3.org/2000/svg" width="13" height="12" viewBox="0 0 13 12">
    <path fill="#D4D8D9" fill-rule="evenodd" d="M12.718 5.439a.872.872 0 0 0 .236-.922.915.915 0 0 0-.753-.61l-3.147-.441a.413.413 0 0 1-.31-.217L7.337.5A.931.931 0 0 0 6.5 0a.933.933 0 0 0-.836.501L4.257 3.249a.41.41 0 0 1-.31.217l-3.148.44a.915.915 0 0 0-.753.611c-.11.329-.02.681.236.922L2.56 7.577a.39.39 0 0 1 .118.351l-.538 3.02a.86.86 0 0 0 .204.728.966.966 0 0 0 1.15.219l2.814-1.426a.434.434 0 0 1 .384 0l2.816 1.426a.948.948 0 0 0 1.149-.218.86.86 0 0 0 .203-.73l-.537-3.019a.39.39 0 0 1 .118-.351l2.277-2.138z"/>
</svg>
